# xmcd
#
# Track frame offsets:
#	150
#	16577
#	34270
#	51470
#	65887
#	84897
#	105435
#	121552
#	138172
#	154570
#	172240
#	189422
#	203820
#	222847
#	243370
#	259500
#
# Disc length: 3681 seconds
#
# Revision: 2
# Processed by: cddbd v1.5.2PL0 Copyright (c) Steve Scherf et al.
# Submitted via: audiograbber 1.83.01
#
DISCID=d00e5f10
DTITLE=Dixie Chicks - SC2216
DYEAR=1900
DGENRE=Karaoke
TTITLE0=Dixie Chicks - There's Your Trouble
TTITLE1=Dixie Chicks - Wide Open Spaces
TTITLE2=Dixie Chicks - You We're Mine
TTITLE3=Dixie Chicks - Let 'Er Rip
TTITLE4=Dixie Chicks - Ready To Run
TTITLE5=Dixie Chicks - Goodbye Earl
TTITLE6=Dixie Chicks - I Can Love You Better
TTITLE7=Dixie Chicks - Tonight The Heartache's On Me
TTITLE8=Dixie Chicks - There's Your Trouble (MPX)
TTITLE9=Dixie Chicks - Wide Open Spaces (MPX)
TTITLE10=Dixie Chicks - You Were Mine (MPX)
TTITLE11=Dixie Chicks - Let 'Er Rip (MPX)
TTITLE12=Dixie Chicks - Ready To Run (MPX)
TTITLE13=Dixie Chicks - Goodbye Earl (MPX)
TTITLE14=Dixie Chicks - I Can Love You Better (MPX)
TTITLE15=Dixie Chicks - Tonight The Heartache's On Me (MPX)
EXTD=
EXTT0=
EXTT1=
EXTT2=
EXTT3=
EXTT4=
EXTT5=
EXTT6=
EXTT7=
EXTT8=
EXTT9=
EXTT10=
EXTT11=
EXTT12=
EXTT13=
EXTT14=
EXTT15=
PLAYORDER=
